<svg version="1.2" baseProfile="tiny" id="EdgeSVG_OC2wh" x="0px" y="0px" width="75.834px" height="103.703px" viewBox="0 0 75.834 103.703" xmlns:xlink="http://www.w3.org/1999/xlink" xmlns="http://www.w3.org/2000/svg">
  <linearGradient id="SVGID_1_" gradientUnits="userSpaceOnUse" x1="0" y1="51.8516" x2="75.834" y2="51.8516">
    <stop offset="0" style="stop-color:#191517;stop-opacity:0.5"/>
    <stop offset="1" style="stop-color:#000000;stop-opacity:0.5"/>
  </linearGradient>
  <path fill="url(#SVGID_1_)" d="M24,103.703v-1h-3v-9.084c-0.045-0.033-0.079-0.051-0.111-0.069&#xD;&#xA;&#x9;&#x9;c-0.212-0.12-0.533-0.303-0.836-0.665c-0.518-0.62-0.908-1.249-1.254-1.804c-0.584-0.94-0.893-1.383-1.195-1.383&#xD;&#xA;&#x9;&#x9;c-1.649,0-2.265-1.141-2.561-1.689c-0.053-0.098-0.131-0.242-0.174-0.296c-0.001,0.001-0.004,0.001-0.007,0.001&#xD;&#xA;&#x9;&#x9;c-0.021,0-0.088-0.011-0.2-0.011h-4.657C10.002,87.727,10,87.757,10,87.796v5.907H0v-39h10v5.484c0,0.281,0.137,0.437,0.244,0.516&#xD;&#xA;&#x9;&#x9;h4.418c0.135,0,0.187-0.019,0.187-0.019c0.005-0.022,0.102-0.221,0.165-0.352c0.286-0.588,0.875-1.8,2.499-1.844l0.213-0.037&#xD;&#xA;&#x9;&#x9;c0.272-0.122,0.707-0.846,1.057-1.429c0.198-0.33,0.404-0.673,0.631-1.013l0.117-0.175c0.165-0.241,0.349-0.49,0.55-0.731&#xD;&#xA;&#x9;&#x9;c0.023-0.031,0.042-0.069,0.063-0.104c0.186-0.317,0.418-0.663,0.857-0.979v-8.317h1.119c-3.318-4.833-5.118-10.576-5.118-16.469&#xD;&#xA;&#x9;&#x9;C17.001,13.114,30.197,0,46.418,0c16.22,0,29.416,13.114,29.416,29.234c0,10.911-6.046,20.446-14.983,25.469H65v39h-9v-5.907&#xD;&#xA;&#x9;&#x9;c0-0.097-0.014-0.136-0.014-0.136s-3.771,0.043-3.779,0.044c-0.057,0.079-0.114,0.186-0.14,0.231&#xD;&#xA;&#x9;&#x9;c-0.156,0.29-0.302,0.551-0.478,0.788c-0.331,0.435-0.695,0.732-1.119,0.931l-0.096,0.045c-0.219,0.093-0.438,0.157-0.671,0.198&#xD;&#xA;&#x9;&#x9;c-0.098,0.025-0.241,0.054-0.413,0.054c-0.161,0-0.309,0.01-0.449,0.028l-0.053,0.006c-0.096,0.017-0.156,0.032-0.218,0.047&#xD;&#xA;&#x9;&#x9;c-0.411,0.113-0.752,0.415-1.271,0.897c-0.169,0.158-0.339,0.314-0.513,0.463c-0.238,0.201-0.412,0.336-0.596,0.458&#xD;&#xA;&#x9;&#x9;c-0.336,0.261-0.771,0.563-1.216,0.844l-0.116,0.067c-0.481,0.303-1.044,0.611-1.73,0.946l-0.351,0.166&#xD;&#xA;&#x9;&#x9;c-1.198,0.558-2.507,1.028-3.887,1.397L38.78,95.3c-0.675,0.177-1.366,0.333-2.055,0.464c-0.243,0.059-0.485,0.113-0.726,0.165&#xD;&#xA;&#x9;&#x9;v6.774h-2v1H24z M55.721,60.703C55.861,60.614,56,60.455,56,60.188v-3.31c-1.954,0.671-4.001,1.143-6.116,1.39&#xD;&#xA;&#x9;&#x9;c1.458,0.292,1.981,1.492,2.25,2.108c0.043,0.099,0.102,0.231,0.149,0.324L55.721,60.703z M42,50.177&#xD;&#xA;&#x9;&#x9;c1.422,0.295,2.873,0.443,4.331,0.443c9.035,0,17.09-5.689,20.119-14.183c-0.021-0.6-0.249-1.174-0.652-1.634l-0.015-0.017&#xD;&#xA;&#x9;&#x9;c-0.188-0.211-0.417-0.396-0.662-0.533c-0.15-0.082-0.261-0.13-0.372-0.167c-0.15-0.045-0.253-0.072-0.355-0.084l-1.6-0.155&#xD;&#xA;&#x9;&#x9;l-0.151-0.013l-1.651-0.147c-2.215-0.189-6.257-0.51-9.263-0.598c-0.006,0.009-0.054,0.074-0.054,0.074l-0.087,0.104&#xD;&#xA;&#x9;&#x9;c-0.436,0.562-0.926,1.028-1.451,1.384c-0.65,0.451-1.374,0.774-2.137,0.959v1.093h-1v5h-5v1.396l-1-0.034v2.639h1V50.177z&#xD;&#xA;&#x9;&#x9; M52.029,25.964c3.692,0.705,9.408,1.412,11.158,1.622l0.769,0.091l0.124,0.014l0.968,0.109c0.037,0.004,0.075,0.005,0.112,0.005&#xD;&#xA;&#x9;&#x9;c0.056,0,0.111-0.003,0.168-0.008c0.168-0.016,0.28-0.035,0.393-0.066l0.101-0.026c0.52-0.152,1.292-0.672,1.636-1.585&#xD;&#xA;&#x9;&#x9;C65.924,15.708,56.899,7.897,46.331,7.897c-1.028,0-2.06,0.074-3.068,0.22c-1.148,0.485-1.47,1.484-1.557,1.902&#xD;&#xA;&#x9;&#x9;c-0.038,0.193-0.051,0.337-0.053,0.479c0.001,0.191,0.012,0.322,0.035,0.447c0.039,0.176,0.073,0.287,0.11,0.372l0.747,1.638&#xD;&#xA;&#x9;&#x9;l0.327,0.706l0.052,0.112l1.282,2.716l0.046,0.095l0.93,1.921l0.056,0.084l0.033,0.099c0.556,1.129,1.064,2.14,1.521,3.016H48&#xD;&#xA;&#x9;&#x9;v1.342c0.011,0.003,0.021,0.006,0.033,0.009c0.323,0.078,0.582,0.16,0.834,0.257c0.15,0.056,0.243,0.092,0.333,0.133&#xD;&#xA;&#x9;&#x9;c0.353,0.159,0.654,0.326,0.926,0.51c0.083,0.056,0.162,0.118,0.241,0.183c0.228,0.175,0.41,0.325,0.583,0.489&#xD;&#xA;&#x9;&#x9;c0.12,0.114,0.236,0.236,0.35,0.362c0.128,0.144,0.241,0.285,0.353,0.434c0.142,0.186,0.232,0.31,0.315,0.441&#xD;&#xA;&#x9;&#x9;C51.988,25.896,52.009,25.93,52.029,25.964z M39.381,21.703c-0.42-1.058-0.886-2.202-1.38-3.391l-1.708-4.02l-0.194-0.439&#xD;&#xA;&#x9;&#x9;c-0.024-0.056-0.055-0.111-0.087-0.167l-0.123-0.176l-0.065-0.075l-0.065-0.076l-0.157-0.15c-0.048-0.043-0.095-0.078-0.142-0.113&#xD;&#xA;&#x9;&#x9;l-0.079-0.061c-0.032-0.023-0.094-0.063-0.157-0.1c-0.433-0.253-0.896-0.379-1.362-0.379c-0.414,0-0.82,0.1-1.21,0.296&#xD;&#xA;&#x9;&#x9;c-2.848,2.377-5.009,5.416-6.307,8.851H29v-1h9v1H39.381z"/>
</svg>