<svg version="1.2" baseProfile="tiny" viewBox="0 0 84.158 15.501" xmlns:xlink="http://www.w3.org/1999/xlink" xmlns="http://www.w3.org/2000/svg">
<path style="fill:#ffffff;" d="M83.1582,13.5011L56.6038,13.5011L56.6038,7.75L56.6038,7.75C56.6038,3.477,53.1273,0.0,48.8537,0.0C45.9612,0.0,43.4331,1.594,42.1009,3.95C40.7712,1.594,38.2422,0.0,35.3489,0.0C31.0762,0.0,27.5988,3.477,27.5988,7.75L27.5988,13.5011L0.9998,13.5011L0.9998,13.5011C0.4469,13.5011,0.0,13.949,0.0,14.501C0.0,15.053,0.4469,15.501,0.9998,15.501L28.5994,15.501C29.1523,15.501,29.5992,15.053,29.5992,14.501L29.5992,7.75C29.5992,4.5799,32.1778,1.9999,35.3489,1.9999C38.4913,1.9999,41.0481,4.534,41.0969,7.666C41.0943,7.695,41.0792,7.721,41.0792,7.751L41.0792,14.501C41.0792,15.053,41.5261,15.501,42.079,15.501C42.6319,15.501,43.0788,15.053,43.0788,14.501L43.0788,7.8761C43.0847,7.833,43.104,7.7941,43.104,7.75C43.104,4.5799,45.6826,1.9999,48.8537,1.9999C52.0248,1.9999,54.6042,4.5799,54.6042,7.75L54.6042,14.501C54.6042,15.053,55.0511,15.501,55.604,15.501L83.1582,15.501C83.7111,15.501,84.158,15.053,84.158,14.501C84.158,13.949,83.7111,13.5011,83.1582,13.5011Z"/>
</svg>