<svg version="1.2" baseProfile="tiny" viewBox="0 0 55.922 29.0" xmlns:xlink="http://www.w3.org/1999/xlink" xmlns="http://www.w3.org/2000/svg">
<path style="fill:#ffffff;" d="M55.4472,0.1491C55.152,-0.0339,54.7818,-0.0499,54.4742,0.1061L28.9609,12.8809L28.9609,0.9999C28.9609,0.448,28.5141,0.0,27.961,0.0C27.4079,0.0,26.9611,0.448,26.9611,0.9999L26.9611,12.8809L1.4473,0.1061C1.1402,-0.049,0.77,-0.0339,0.4748,0.1491C0.1801,0.332,0.0,0.6531,0.0,0.9999L0.0,28.0001C0.0,28.3469,0.1801,28.6679,0.4748,28.8509C0.6353,28.9501,0.817,29.0,0.9999,29.0C1.1531,29.0,1.3069,28.9649,1.4473,28.8939L26.9611,16.1191L26.9611,28.0001C26.9611,28.552,27.4079,29.0,27.961,29.0C28.5141,29.0,28.9609,28.552,28.9609,28.0001L28.9609,16.1191L54.4747,28.8939C54.6151,28.9649,54.7689,29.0,54.9221,29.0C55.105,29.0,55.2867,28.9501,55.4472,28.8509C55.7419,28.6691,55.922,28.3469,55.922,28.0001L55.922,0.9999C55.922,0.6531,55.7419,0.332,55.4472,0.1491M1.9998,26.381L1.9998,2.619L25.728,14.5L1.9998,26.381M53.9222,26.381L30.194,14.5L53.9222,2.619L53.9222,26.381Z"/>
</svg>