<svg version="1.2" baseProfile="tiny" viewBox="0 0 29.0 42.5" xmlns:xlink="http://www.w3.org/1999/xlink" xmlns="http://www.w3.org/2000/svg">
<path style="fill:#ffffff;" d="M28.0001,0.0L0.9999,0.0L0.9999,0.0C0.4469,0.0,0.0,0.448,0.0,1.0L0.0,18.1012C0.0,18.6528,0.4469,19.1012,0.9999,19.1012L13.5001,19.1012L13.5001,41.5C13.5001,42.0529,13.947,42.5,14.5,42.5C15.053,42.5,15.4999,42.0529,15.4999,41.5L15.4999,19.1012L28.0001,19.1012L28.0001,19.1012C28.5531,19.1012,29.0,18.6528,29.0,18.1012L29.0,1.0C29.0,0.448,28.5531,0.0,28.0001,0.0M26.9999,17.1012L2.0001,17.1012L2.0001,17.1012L2.0001,2.0001L26.9999,2.0001L26.9999,17.1012M13.3951,3.6788L9.213,14.4168L11.513,14.4168L12.3989,11.9782L16.6921,11.9782L17.63,14.4168L19.9871,14.4168L15.6881,3.6788L13.3951,3.6788L13.3951,3.6788M13.0651,10.1681L14.5151,6.1842L15.9941,10.1681L13.0651,10.1681L13.0651,10.1681Z"/>
</svg>