<svg version="1.2" baseProfile="tiny" viewBox="0 0 18.000 17.583" xmlns:xlink="http://www.w3.org/1999/xlink" xmlns="http://www.w3.org/2000/svg">
<path style="fill:#ffffff;" d="M18,17.109c0,0.262-0.212,0.474-0.474,0.474H0.474C0.212,17.583,0,17.371,0,17.109V0.474C0,0.212,0.212,0,0.474,0   s0.474,0.212,0.474,0.474v16.162h16.579C17.788,16.635,18,16.847,18,17.109z M3.591,13.999c0.08,0.054,0.171,0.079,0.261,0.079   c0.153,0,0.304-0.075,0.396-0.213l3.744-5.666l2.819,1.896c0.206,0.138,0.484,0.095,0.638-0.102l5.395-6.883   c0.162-0.206,0.126-0.504-0.08-0.665c-0.206-0.162-0.504-0.125-0.665,0.081l-5.124,6.537l-2.85-1.916   C8.019,7.077,7.89,7.051,7.766,7.076C7.643,7.1,7.534,7.173,7.464,7.279l-4.007,6.063C3.313,13.561,3.373,13.855,3.591,13.999z"/>
</svg>