<svg version="1.2" baseProfile="tiny" viewBox="0 0 75.834 103.703" xmlns:xlink="http://www.w3.org/1999/xlink" xmlns="http://www.w3.org/2000/svg">
<path style="fill:#ffffff;" d="M57.5004,56.2029C57.5004,56.2029,57.5004,58.6233,57.5004,60.1872C57.5004,61.752,56.0262,62.2031,56.0262,62.2031L52.2307,62.2031C50.3348,62.2031,51.1872,59.7029,49.1958,59.7029C47.2999,59.7029,46.716,58.168,45.5777,57.4079C43.2352,55.6211,40.4999,54.4275,37.4999,53.7814L37.4999,51.2034L40.4999,51.2034L40.4999,47.2025L39.4997,47.2025L39.4997,41.2033L40.4999,41.2033L40.4999,40.2025L45.4996,40.2025L45.4996,35.203L46.4999,35.203L46.4999,34.2344C46.4999,34.2365,46.5204,34.2417,46.5681,34.2417C49.2921,34.2417,51.4632,32.0318,51.4632,29.3075C51.4632,26.5822,49.3111,24.3754,46.5871,24.3754C46.5378,24.3754,46.4999,24.3806,46.4999,24.3806L46.4999,23.2025L37.4999,23.2025L37.4999,23.2025L36.4997,23.2025L36.4997,22.2018L30.4997,22.2018L30.4997,23.2025L30.4997,23.2025L30.4997,23.2025L21.4997,23.2025L21.4997,35.202L22.4999,35.202L22.4999,40.2015L27.4997,40.2015L27.4997,41.2022L28.4999,41.2022L28.4999,46.2018L25.4999,46.2018L25.4999,47.2025L22.4999,47.2025L22.4999,50.0844L22.4999,54.9232C21.4997,55.281,21.5619,55.6657,21.232,56.0639C19.8078,57.7698,19.3263,59.988,17.6178,59.988C16.0063,59.988,16.7487,62.2031,14.6617,62.2031L9.9191,62.2031L9.9191,62.2031C9.9191,62.2031,8.5002,61.7531,8.5002,60.1872C8.5002,58.6233,8.5002,56.2029,8.5002,56.2029L1.5,56.2029L1.5,61.7531L1.5,73.9921L1.5,86.2301L1.5,92.2034L8.5002,92.2034C8.5002,92.2034,8.5002,89.3598,8.5002,87.796C8.5002,86.2311,9.9191,86.2031,9.9191,86.2031L14.6617,86.2031C16.7487,86.2031,15.9911,88.1631,17.6033,88.1631C19.3111,88.1631,19.779,90.2081,21.2032,91.9161C21.5558,92.3382,22.007,92.2034,22.5371,93.2031L22.4999,93.2031L22.4999,93.2031L22.4999,99.0384L22.4999,101.2027L25.4999,101.2027L25.4999,102.2035L32.5002,102.2035L32.5002,101.2027L34.4999,101.2027L34.4999,99.0384L34.4999,94.6103C38.5002,94.0773,42.2873,92.9459,45.3593,90.6022C46.4969,89.8431,47.1832,88.4514,49.0798,88.4514C51.0712,88.4514,50.3348,86.2031,52.2307,86.2031L56.0262,86.2031C56.0262,86.2031,57.5004,86.2301,57.5004,87.796C57.5004,89.3598,57.5004,92.2034,57.5004,92.2034L63.5004,92.2034L63.5004,86.2301L63.5004,73.9931L63.5004,61.7531L63.5004,56.2029L57.5004,56.2029L57.5004,56.2029Z"/>
</svg>